<?xml version="1.0" encoding="UTF-8" standalone="no"?>
<svg
   xmlns:dc="http://purl.org/dc/elements/1.1/"
   xmlns:cc="http://creativecommons.org/ns#"
   xmlns:rdf="http://www.w3.org/1999/02/22-rdf-syntax-ns#"
   xmlns:svg="http://www.w3.org/2000/svg"
   xmlns="http://www.w3.org/2000/svg"
   xmlns:sodipodi="http://sodipodi.sourceforge.net/DTD/sodipodi-0.dtd"
   xmlns:inkscape="http://www.inkscape.org/namespaces/inkscape"
   width="125.7"
   height="125.6"
   version="1.1"
   id="svg14"
   sodipodi:docname="slack.svg"
   inkscape:version="0.92.4 5da689c313, 2019-01-14">
  <metadata
     id="metadata20">
    <rdf:RDF>
      <cc:Work
         rdf:about="">
        <dc:format>image/svg+xml</dc:format>
        <dc:type
           rdf:resource="http://purl.org/dc/dcmitype/StillImage" />
        <dc:title></dc:title>
      </cc:Work>
    </rdf:RDF>
  </metadata>
  <defs
     id="defs18" />
  <sodipodi:namedview
     pagecolor="#ffffff"
     bordercolor="#666666"
     borderopacity="1"
     objecttolerance="10"
     gridtolerance="10"
     guidetolerance="10"
     inkscape:pageopacity="0"
     inkscape:pageshadow="2"
     inkscape:window-width="1900"
     inkscape:window-height="1038"
     id="namedview16"
     showgrid="false"
     fit-margin-top="0"
     fit-margin-left="0"
     fit-margin-right="0"
     fit-margin-bottom="0"
     inkscape:zoom="0.6626506"
     inkscape:cx="-78.418182"
     inkscape:cy="62.7"
     inkscape:window-x="10"
     inkscape:window-y="32"
     inkscape:window-maximized="0"
     inkscape:current-layer="g12" />
  <g
     id="g12"
     style="fill:none"
     transform="translate(-0.7,-0.6)">
    <path
       d="M 27.2,80 C 27.2,87.3 21.3,93.2 14,93.2 6.7,93.2 0.8,87.3 0.8,80 0.8,72.7 6.7,66.8 14,66.8 h 13.2 z m 6.6,0 c 0,-7.3 5.9,-13.2 13.2,-13.2 7.3,0 13.2,5.9 13.2,13.2 v 33 c 0,7.3 -5.9,13.2 -13.2,13.2 -7.3,0 -13.2,-5.9 -13.2,-13.2 z"
       id="path4"
       inkscape:connector-curvature="0"
       style="fill:#e01e5a" />
    <path
       d="M 47,27 C 39.7,27 33.8,21.1 33.8,13.8 33.8,6.5 39.7,0.6 47,0.6 c 7.3,0 13.2,5.9 13.2,13.2 V 27 Z m 0,6.7 c 7.3,0 13.2,5.9 13.2,13.2 0,7.3 -5.9,13.2 -13.2,13.2 H 13.9 C 6.6,60.1 0.7,54.2 0.7,46.9 0.7,39.6 6.6,33.7 13.9,33.7 Z"
       id="path6"
       inkscape:connector-curvature="0"
       style="fill:#36c5f0" />
    <path
       d="m 99.9,46.9 c 0,-7.3 5.9,-13.2 13.2,-13.2 7.3,0 13.2,5.9 13.2,13.2 0,7.3 -5.9,13.2 -13.2,13.2 H 99.9 Z m -6.6,0 c 0,7.3 -5.9,13.2 -13.2,13.2 -7.3,0 -13.2,-5.9 -13.2,-13.2 V 13.8 c 0,-7.3 5.9,-13.2 13.2,-13.2 7.3,0 13.2,5.9 13.2,13.2 z"
       id="path8"
       inkscape:connector-curvature="0"
       style="fill:#2eb67d" />
    <path
       d="m 80.1,99.8 c 7.3,0 13.2,5.9 13.2,13.2 0,7.3 -5.9,13.2 -13.2,13.2 -7.3,0 -13.2,-5.9 -13.2,-13.2 V 99.8 Z m 0,-6.6 c -7.3,0 -13.2,-5.9 -13.2,-13.2 0,-7.3 5.9,-13.2 13.2,-13.2 h 33.1 c 7.3,0 13.2,5.9 13.2,13.2 0,7.3 -5.9,13.2 -13.2,13.2 z"
       id="path10"
       inkscape:connector-curvature="0"
       style="fill:#ecb22e" />
  </g>
</svg>
